<?xml version="1.0" encoding="UTF-8" standalone="no"?>
<!-- Created with Inkscape (http://www.inkscape.org/) -->

<svg>
  <defs
     id="defs4" />
 
  <g
     inkscape:label="Layer 1"
     inkscape:groupmode="layer"
     id="layer1"
     transform="translate(0,-308.2677)">
    <path
       style="fill:#000000;fill-opacity:1;fillRule:nonzero;stroke:none"
       d="m 440.0377,535.19317 c -58.89851,9.09871 -99.26032,64.20917 -90.1616,123.10768 9.0987,58.89851 64.21309,99.28577 123.1116,90.18707 58.89852,-9.09871 99.28184,-64.23855 90.18314,-123.13707 -9.09871,-58.89852 -64.23463,-99.25638 -123.13314,-90.15768 z m 1.86005,12.04063 c 52.24331,-8.0706 101.13639,27.73771 109.207,79.98103 8.07061,52.24332 -27.73771,101.1364 -79.98103,109.207 -52.24331,8.07061 -101.13639,-27.73772 -109.207,-79.98103 -8.07061,-52.24331 27.73772,-101.13639 79.98103,-109.207 z"
       id="path3070"
       inkscape:connector-curvature="0" />
    <path
       style="fill:#000000;fill-opacity:1;fillRule:nonzero;stroke:none"
       d="M 709.2509,841.55884 C 644.90361,797.32407 606.49181,769.06169 558.64288,714.14752 544.7381,696.35949 546.57642,697.8203 531.64579,713.65386 c -17.4113,15.83677 -15.77118,16.74017 0.2583,27.58674 51.66792,35.01522 98.33837,86.86513 139.14741,138.5014 18.75111,15.98853 54.30408,-16.91996 38.1994,-38.18316 z"
       id="rect3075"
       inkscape:connector-curvature="0"
       sodipodi:nodetypes="cccccc" />
  </g>
</svg>
